<svg width="36" height="36" viewBox="0 0 36 36" fill="none" xmlns="http://www.w3.org/2000/svg">
<circle cx="18" cy="18" r="18" fill="#F7ECFF"/>
<path d="M23.9841 17.375C23.8804 17.375 23.7808 17.4162 23.7074 17.4896C23.6341 17.563 23.5928 17.6625 23.5928 17.7663V22.0633C23.5936 22.1397 23.5757 22.2151 23.5407 22.283C23.3205 22.703 22.277 24.0747 18.1031 24.0747C13.9292 24.0747 12.8857 22.7046 12.6629 22.284C12.628 22.2163 12.6101 22.1411 12.6108 22.0649V17.9322C12.6108 17.8284 12.5695 17.7289 12.4961 17.6555C12.4228 17.5821 12.3232 17.5409 12.2194 17.5409C12.1157 17.5409 12.0161 17.5821 11.9428 17.6555C11.8694 17.7289 11.8281 17.8284 11.8281 17.9322V22.0633C11.8271 22.2664 11.875 22.4667 11.968 22.6472C12.3196 23.3113 13.6161 24.8573 18.1031 24.8573C22.5901 24.8573 23.8861 23.3129 24.2351 22.6493C24.3288 22.4688 24.3772 22.2682 24.376 22.0649V17.7663C24.376 17.7149 24.3658 17.6639 24.3461 17.6164C24.3264 17.5689 24.2976 17.5258 24.2612 17.4894C24.2248 17.4531 24.1816 17.4243 24.134 17.4046C24.0865 17.385 24.0356 17.3749 23.9841 17.375Z" fill="#4E1173"/>
<path d="M29.2103 15.0718L18.858 11.6137C18.7789 11.5871 18.6934 11.5871 18.6143 11.6137L6.95293 15.3525C6.87506 15.3781 6.80719 15.4275 6.75888 15.4937C6.71057 15.56 6.68424 15.6397 6.68361 15.7216C6.68297 15.8036 6.70806 15.8837 6.75535 15.9507C6.80263 16.0176 6.86973 16.0681 6.94719 16.0949L17.8515 19.7805C17.8919 19.7941 17.9342 19.8012 17.9768 19.8014C18.0216 19.8013 18.066 19.7935 18.1082 19.7784L26.1122 16.9203V18.7986C25.8424 18.88 25.6059 19.046 25.4375 19.272C25.2691 19.498 25.1777 19.772 25.1768 20.0539V20.8427C25.1768 21.1926 25.3157 21.528 25.5631 21.7754C25.8104 22.0227 26.1459 22.1617 26.4957 22.1617C26.8455 22.1617 27.181 22.0227 27.4284 21.7754C27.6757 21.528 27.8147 21.1926 27.8147 20.8427V20.0528C27.8139 19.7735 27.7244 19.5017 27.5591 19.2766C27.3938 19.0516 27.1611 18.8849 26.8948 18.8007V16.6407L29.2171 15.8116C29.2938 15.7843 29.3601 15.7336 29.4066 15.6668C29.4532 15.6 29.4778 15.5203 29.4769 15.4389C29.4761 15.3575 29.4498 15.2783 29.4018 15.2125C29.3539 15.1467 29.2865 15.0975 29.2093 15.0718H29.2103ZM27.03 20.8427C27.03 20.985 26.9735 21.1214 26.8729 21.222C26.7723 21.3226 26.6359 21.3791 26.4936 21.3791C26.3514 21.3791 26.215 21.3226 26.1144 21.222C26.0138 21.1214 25.9573 20.985 25.9573 20.8427V20.0528C25.9573 19.9824 25.9711 19.9127 25.9981 19.8476C26.0251 19.7825 26.0646 19.7234 26.1144 19.6736C26.1642 19.6238 26.2233 19.5843 26.2884 19.5573C26.3534 19.5304 26.4232 19.5165 26.4936 19.5165C26.5641 19.5165 26.6338 19.5304 26.6989 19.5573C26.7639 19.5843 26.8231 19.6238 26.8729 19.6736C26.9227 19.7234 26.9622 19.7825 26.9891 19.8476C27.0161 19.9127 27.03 19.9824 27.03 20.0528V20.8427ZM26.4477 15.9697L18.1453 15.0739C18.0935 15.0671 18.041 15.0706 17.9906 15.0844C17.9403 15.0982 17.8932 15.122 17.8522 15.1542C17.8112 15.1865 17.7771 15.2266 17.7518 15.2723C17.7265 15.3179 17.7106 15.3682 17.705 15.4201C17.6995 15.472 17.7043 15.5244 17.7194 15.5744C17.7344 15.6244 17.7592 15.6709 17.7925 15.7111C17.8257 15.7513 17.8667 15.7845 17.9129 15.8086C17.9592 15.8328 18.0098 15.8475 18.0618 15.8518L24.7552 16.5739L17.9726 18.9968L8.32353 15.7349L18.7312 12.3958L27.8882 15.4547L26.4477 15.9697Z" fill="#4E1173"/>
</svg>
