<svg width="36" height="36" viewBox="0 0 36 36" fill="none" xmlns="http://www.w3.org/2000/svg">
<circle cx="18" cy="18" r="18" fill="#F7ECFF"/>
<path d="M8 18.5C7.86739 18.5 7.74021 18.4473 7.64645 18.3536C7.55268 18.2598 7.5 18.1326 7.5 18V8.5C7.50026 8.23486 7.60571 7.98066 7.79319 7.79319C7.98066 7.60571 8.23486 7.50026 8.5 7.5H17.5C17.7651 7.50026 18.0193 7.60571 18.2068 7.79319C18.3943 7.98066 18.4997 8.23486 18.5 8.5V15.5C18.4997 15.7651 18.3943 16.0193 18.2068 16.2068C18.0193 16.3943 17.7651 16.4997 17.5 16.5H10.207L8.3535 18.3535C8.3071 18.4 8.25199 18.4368 8.19133 18.4619C8.13068 18.4871 8.06566 18.5 8 18.5ZM17.5 8.499L8.5 8.5V16.793L9.6465 15.6465C9.74025 15.5527 9.8674 15.5 10 15.5H17.5V8.499ZM28 28.5C27.9343 28.5 27.8693 28.4871 27.8087 28.4619C27.748 28.4368 27.6929 28.4 27.6465 28.3535L25.793 26.5H18.5C18.2349 26.4997 17.9807 26.3943 17.7932 26.2068C17.6057 26.0193 17.5003 25.7651 17.5 25.5V18.5C17.5003 18.2349 17.6057 17.9807 17.7932 17.7932C17.9807 17.6057 18.2349 17.5003 18.5 17.5H27.5C27.7651 17.5003 28.0193 17.6057 28.2068 17.7932C28.3943 17.9807 28.4997 18.2349 28.5 18.5V28C28.5 28.1326 28.4473 28.2598 28.3536 28.3536C28.2598 28.4473 28.1326 28.5 28 28.5ZM18.5 18.5V25.5H26C26.1326 25.5 26.2598 25.5527 26.3535 25.6465L27.5 26.793V18.5H18.5Z" fill="#4E1173"/>
<path d="M11.4995 14.5C11.373 14.4999 11.2513 14.4518 11.1589 14.3656C11.0664 14.2793 11.0101 14.1612 11.0012 14.0351C10.9924 13.909 11.0316 13.7842 11.1111 13.6858C11.1905 13.5874 11.3043 13.5228 11.4295 13.505C12.0792 13.4103 12.6813 13.1094 13.147 12.6465C13.4699 12.3234 13.7155 11.9315 13.8655 11.5H11.5005C11.3679 11.5 11.2407 11.4473 11.1469 11.3536C11.0531 11.2598 11.0005 11.1326 11.0005 11C11.0005 10.8674 11.0531 10.7402 11.1469 10.6464C11.2407 10.5527 11.3679 10.5 11.5005 10.5H14.5005C14.5721 10.5 14.6429 10.5154 14.708 10.5451C14.7732 10.5748 14.8312 10.6182 14.8781 10.6723C14.9251 10.7264 14.9598 10.79 14.9801 10.8587C15.0003 10.9274 15.0056 10.9996 14.9955 11.0705C14.8721 11.9349 14.4717 12.736 13.8543 13.3535C13.2369 13.971 12.4359 14.3715 11.5715 14.495C11.5478 14.4984 11.5234 14.5 11.4995 14.5Z" fill="#4E1173"/>
<path d="M13 11.5C12.8674 11.5 12.7402 11.4473 12.6465 11.3536C12.5527 11.2598 12.5 11.1326 12.5 11V10C12.5 9.86739 12.5527 9.74021 12.6465 9.64645C12.7402 9.55268 12.8674 9.5 13 9.5C13.1326 9.5 13.2598 9.55268 13.3536 9.64645C13.4473 9.74021 13.5 9.86739 13.5 10V11C13.5 11.1326 13.4473 11.2598 13.3536 11.3536C13.2598 11.4473 13.1326 11.5 13 11.5ZM15.0005 14.5C14.9875 14.5 14.9742 14.4995 14.9605 14.4985C14.3789 14.4535 13.8158 14.2738 13.3156 13.9736C12.8154 13.6734 12.3919 13.261 12.0785 12.769C12.0072 12.6572 11.9832 12.5217 12.0118 12.3922C12.0404 12.2627 12.1192 12.1498 12.231 12.0785C12.3428 12.0072 12.4784 11.9831 12.6079 12.0117C12.7374 12.0403 12.8502 12.1192 12.9215 12.231C13.1515 12.5927 13.4627 12.8957 13.8302 13.1162C14.1978 13.3367 14.6117 13.4684 15.039 13.501C15.1694 13.509 15.2915 13.5677 15.3792 13.6646C15.4668 13.7614 15.5131 13.8888 15.508 14.0193C15.503 14.1499 15.4471 14.2732 15.3522 14.3631C15.2574 14.4529 15.1311 14.5021 15.0005 14.5ZM20.9995 24.5C20.9144 24.4999 20.8307 24.478 20.7563 24.4364C20.682 24.3949 20.6195 24.3351 20.5748 24.2626C20.5301 24.1901 20.5046 24.1074 20.5008 24.0224C20.497 23.9373 20.515 23.8527 20.553 23.7765L22.553 19.7765C22.6147 19.6621 22.7185 19.5763 22.8424 19.5371C22.9662 19.4979 23.1005 19.5085 23.2167 19.5666C23.3329 19.6247 23.422 19.7258 23.465 19.8484C23.5079 19.971 23.5015 20.1055 23.447 20.2235L21.447 24.2235C21.4055 24.3065 21.3417 24.3764 21.2628 24.4252C21.1838 24.4741 21.0924 24.5 20.9995 24.5Z" fill="#4E1173"/>
<path d="M25.0014 24.5018C24.9085 24.5018 24.8174 24.476 24.7384 24.4272C24.6593 24.3783 24.5954 24.3084 24.5539 24.2253L22.5539 20.2253C22.4994 20.1073 22.493 19.9728 22.536 19.8502C22.579 19.7276 22.668 19.6265 22.7842 19.5684C22.9004 19.5103 23.0347 19.4997 23.1586 19.5389C23.2825 19.5781 23.3862 19.6639 23.4479 19.7783L25.4479 23.7783C25.4859 23.8544 25.5039 23.939 25.5001 24.0241C25.4964 24.1091 25.4709 24.1917 25.4263 24.2642C25.3816 24.3366 25.3192 24.3965 25.2449 24.4381C25.1707 24.4797 25.0865 24.5016 25.0014 24.5018Z" fill="#4E1173"/>
<path d="M24.7414 22.9852H21.2584C21.1258 22.9852 20.9986 22.9325 20.9048 22.8387C20.8111 22.745 20.7584 22.6178 20.7584 22.4852C20.7584 22.3526 20.8111 22.2254 20.9048 22.1316C20.9986 22.0378 21.1258 21.9852 21.2584 21.9852H24.7414C24.874 21.9852 25.0012 22.0378 25.0949 22.1316C25.1887 22.2254 25.2414 22.3526 25.2414 22.4852C25.2414 22.6178 25.1887 22.745 25.0949 22.8387C25.0012 22.9325 24.874 22.9852 24.7414 22.9852ZM10.9999 19.5017C10.901 19.5016 10.8044 19.4723 10.7222 19.4174C10.64 19.3624 10.5759 19.2843 10.5381 19.193C10.5002 19.1016 10.4903 19.0011 10.5096 18.9042C10.5289 18.8072 10.5765 18.7181 10.6464 18.6482L11.6464 17.6482C11.7407 17.5571 11.867 17.5067 11.9981 17.5078C12.1292 17.509 12.2546 17.5616 12.3473 17.6543C12.44 17.747 12.4926 17.8724 12.4937 18.0035C12.4949 18.1346 12.4445 18.2609 12.3534 18.3552L11.3534 19.3552C11.307 19.4017 11.2519 19.4385 11.1913 19.4637C11.1306 19.4888 11.0656 19.5017 10.9999 19.5017Z" fill="#4E1173"/>
<path d="M13.0017 19.5017C12.936 19.5017 12.871 19.4888 12.8103 19.4637C12.7496 19.4385 12.6945 19.4017 12.6482 19.3552L11.6482 18.3552C11.5571 18.2609 11.5067 18.1346 11.5078 18.0035C11.509 17.8724 11.5616 17.747 11.6543 17.6543C11.747 17.5616 11.8724 17.509 12.0035 17.5078C12.1346 17.5067 12.2609 17.5571 12.3552 17.6482L13.3552 18.6482C13.4251 18.7181 13.4727 18.8072 13.492 18.9042C13.5112 19.0011 13.5013 19.1016 13.4635 19.193C13.4257 19.2843 13.3616 19.3624 13.2794 19.4174C13.1972 19.4723 13.1005 19.5016 13.0017 19.5017Z" fill="#4E1173"/>
<path d="M16 23.5017H12.5C12.2349 23.5014 11.9807 23.396 11.7932 23.2085C11.6057 23.021 11.5003 22.7668 11.5 22.5017V18.0017C11.5 17.8691 11.5527 17.7419 11.6464 17.6481C11.7402 17.5543 11.8674 17.5017 12 17.5017C12.1326 17.5017 12.2598 17.5543 12.3536 17.6481C12.4473 17.7419 12.5 17.8691 12.5 18.0017V22.5017H16C16.1326 22.5017 16.2598 22.5543 16.3536 22.6481C16.4473 22.7419 16.5 22.8691 16.5 23.0017C16.5 23.1343 16.4473 23.2615 16.3536 23.3552C16.2598 23.449 16.1326 23.5017 16 23.5017ZM24 16.5017C23.9011 16.5016 23.8045 16.4723 23.7223 16.4174C23.6401 16.3624 23.576 16.2843 23.5382 16.193C23.5003 16.1016 23.4904 16.0011 23.5097 15.9042C23.529 15.8072 23.5766 15.7181 23.6465 15.6482L24.6465 14.6482C24.7408 14.5571 24.8671 14.5067 24.9982 14.5078C25.1293 14.509 25.2547 14.5616 25.3474 14.6543C25.4401 14.747 25.4927 14.8724 25.4938 15.0035C25.495 15.1346 25.4446 15.2609 25.3535 15.3552L24.3535 16.3552C24.3071 16.4017 24.252 16.4385 24.1914 16.4637C24.1307 16.4888 24.0657 16.5017 24 16.5017Z" fill="#4E1173"/>
<path d="M24.0017 16.5017C23.936 16.5017 23.871 16.4888 23.8103 16.4637C23.7496 16.4385 23.6945 16.4017 23.6482 16.3552L22.6482 15.3552C22.5571 15.2609 22.5067 15.1346 22.5078 15.0035C22.509 14.8724 22.5616 14.747 22.6543 14.6543C22.747 14.5616 22.8724 14.509 23.0035 14.5078C23.1346 14.5067 23.2609 14.5571 23.3552 14.6482L24.3552 15.6482C24.4251 15.7181 24.4727 15.8072 24.492 15.9042C24.5112 16.0011 24.5013 16.1016 24.4635 16.193C24.4257 16.2843 24.3616 16.3624 24.2794 16.4174C24.1972 16.4723 24.1005 16.5016 24.0017 16.5017Z" fill="#4E1173"/>
<path d="M24 16.5C23.8674 16.5 23.7402 16.4473 23.6464 16.3536C23.5527 16.2598 23.5 16.1326 23.5 16V11.5H20C19.8674 11.5 19.7402 11.4473 19.6464 11.3536C19.5527 11.2598 19.5 11.1326 19.5 11C19.5 10.8674 19.5527 10.7402 19.6464 10.6464C19.7402 10.5527 19.8674 10.5 20 10.5H23.5C23.7651 10.5003 24.0193 10.6057 24.2068 10.7932C24.3943 10.9807 24.4997 11.2349 24.5 11.5V16C24.5 16.1326 24.4473 16.2598 24.3536 16.3536C24.2598 16.4473 24.1326 16.5 24 16.5Z" fill="#4E1173"/>
</svg>
