<svg width="36" height="36" viewBox="0 0 36 36" fill="none" xmlns="http://www.w3.org/2000/svg">
<circle cx="18" cy="18" r="18" fill="#F7ECFF"/>
<path fill-rule="evenodd" clip-rule="evenodd" d="M17.259 11.5699V24.4305L16.2915 23.4552C16.2226 23.3834 16.1401 23.3261 16.0487 23.2865C15.9574 23.2469 15.8591 23.2258 15.7595 23.2246C15.66 23.2233 15.5612 23.2418 15.4689 23.2791C15.3766 23.3164 15.2926 23.3717 15.2219 23.4417C15.1512 23.5117 15.0952 23.595 15.0571 23.6869C15.019 23.7788 14.9996 23.8773 15 23.9767C15.0004 24.0762 15.0207 24.1745 15.0595 24.2661C15.0984 24.3576 15.1551 24.4405 15.2264 24.5099L17.4765 26.7775C17.5459 26.8478 17.6286 26.9036 17.7197 26.9418C17.8108 26.98 17.9086 26.9998 18.0075 27C18.1063 27.0002 18.2042 26.9808 18.2955 26.943C18.3868 26.9052 18.4697 26.8497 18.5393 26.7797L20.7895 24.5324C20.9261 24.3911 21.0017 24.2019 21 24.0055C20.9983 23.8091 20.9194 23.6212 20.7803 23.4823C20.6413 23.3434 20.4531 23.2646 20.2565 23.2629C20.0598 23.2612 19.8704 23.3367 19.7289 23.4732L18.7591 24.4418V11.5579L19.7289 12.5265C19.8704 12.663 20.0598 12.7385 20.2565 12.7368C20.4531 12.7351 20.6413 12.6563 20.7803 12.5174C20.9194 12.3785 20.9983 12.1906 21 11.9942C21.0017 11.7978 20.9261 11.6086 20.7895 11.4673L18.5393 9.21996C18.4696 9.15005 18.3867 9.09462 18.2954 9.05687C18.2041 9.01912 18.1063 8.99979 18.0075 9C17.9087 9.00021 17.8109 9.01995 17.7198 9.05809C17.6286 9.09623 17.546 9.15201 17.4765 9.22221L15.2264 11.4897C15.0973 11.6329 15.0283 11.8202 15.0337 12.0128C15.0391 12.2054 15.1186 12.3885 15.2556 12.5242C15.3925 12.6598 15.5766 12.7376 15.7694 12.7414C15.9623 12.7452 16.1492 12.6747 16.2915 12.5445L17.259 11.5699Z" fill="#4E1173"/>
</svg>
