<svg width="36" height="36" viewBox="0 0 36 36" fill="none" xmlns="http://www.w3.org/2000/svg">
<circle cx="18" cy="18" r="18" fill="#F7ECFF"/>
<path fill-rule="evenodd" clip-rule="evenodd" d="M24.5 11.5C24.5 11.2239 24.7239 11 25 11C26.3807 11 27.5 12.1193 27.5 13.5V14.2955C27.5 14.9895 27.1793 15.6086 26.6779 16.0127C27.4756 16.5519 28 17.4647 28 18.5V20C28 20.2761 27.7761 20.5 27.5 20.5C27.2239 20.5 27 20.2761 27 20V18.5C27 17.3955 26.1045 16.5 25 16.5C24.7239 16.5 24.5 16.2761 24.5 16C24.5 15.7239 24.7239 15.5 25 15.5H25.2955C25.9607 15.5 26.5 14.9607 26.5 14.2955V13.5C26.5 12.6716 25.8284 12 25 12C24.7239 12 24.5 11.7761 24.5 11.5ZM23 14.5C22.1715 14.5 21.5 15.1715 21.5 16V16.9091C21.5 17.7375 22.1715 18.4091 23 18.4091H24.5C25.3284 18.4091 26 19.0806 26 19.9091V20C26 20.2761 25.7761 20.5 25.5 20.5C25.2239 20.5 25 20.2761 25 20V19.9091C25 19.6329 24.7761 19.4091 24.5 19.4091H23C21.6193 19.4091 20.5 18.2898 20.5 16.9091V16C20.5 14.6193 21.6193 13.5 23 13.5C23.2761 13.5 23.5 13.7239 23.5 14C23.5 14.2761 23.2761 14.5 23 14.5ZM9.5 21C8.67158 21 8 21.6715 8 22.5V23.5C8 24.3285 8.67158 25 9.5 25H22.5C23.3285 25 24 24.3285 24 23.5V22.5C24 21.6715 23.3285 21 22.5 21H9.5ZM9 22.5C9 22.2239 9.22386 22 9.5 22H22.5C22.7761 22 23 22.2239 23 22.5V23.5C23 23.7761 22.7761 24 22.5 24H9.5C9.22386 24 9 23.7761 9 23.5V22.5ZM26 22C26 21.7239 25.7761 21.5 25.5 21.5C25.2239 21.5 25 21.7239 25 22V24C25 24.2761 25.2239 24.5 25.5 24.5C25.7761 24.5 26 24.2761 26 24V22ZM28 22C28 21.7239 27.7761 21.5 27.5 21.5C27.2239 21.5 27 21.7239 27 22V24C27 24.2761 27.2239 24.5 27.5 24.5C27.7761 24.5 28 24.2761 28 24V22Z" fill="#4E1173"/>
</svg>
