<svg width="36" height="36" viewBox="0 0 36 36" fill="none" xmlns="http://www.w3.org/2000/svg">
<circle cx="18" cy="18" r="18" fill="#F7ECFF"/>
<path fill-rule="evenodd" clip-rule="evenodd" d="M14.4773 8.25627C14.2252 8.27627 13.9798 8.34689 13.7557 8.4639C13.5317 8.58091 13.3335 8.74191 13.173 8.93727C12.9158 9.25227 12.789 9.63477 12.7688 10.027C12.5631 10.0011 12.3547 10.0067 12.1508 10.0435C11.8415 10.105 11.5507 10.2372 11.301 10.4298C11.0514 10.6229 10.8494 10.8708 10.7106 11.1542C10.5717 11.4377 10.4997 11.7491 10.5 12.0648L10.5045 12.73L10.503 12.7375V12.7908L10.5015 12.946L10.5 13.6825V14.2683C10.5 14.8083 10.803 15.2755 11.244 15.5298V25.2693C11.244 26.2218 12.0188 27.0018 12.9698 27.0018H20.7743C21.7253 27.0018 22.5 26.2218 22.5 25.2693V24.0168H24.1245C24.4882 24.017 24.8372 23.873 25.095 23.6165C25.3528 23.36 25.4984 23.0117 25.5 22.648V16.3713C25.4986 16.0074 25.3531 15.659 25.0952 15.4023C24.8374 15.1456 24.4883 15.0016 24.1245 15.0018H22.5V13.8723C22.869 13.5948 23.1375 13.186 23.2223 12.7023C23.2984 12.2589 23.2128 11.8029 22.9809 11.4173C22.7491 11.0317 22.3866 10.7422 21.9593 10.6015C21.8774 10.3446 21.737 10.1102 21.5492 9.91667C21.3614 9.72315 21.1313 9.57583 20.877 9.48627C20.5643 9.37994 20.2279 9.36459 19.9069 9.442C19.5858 9.51941 19.2934 9.68639 19.0635 9.92352C18.8829 9.67666 18.6538 9.46916 18.3904 9.31366C18.127 9.15816 17.8347 9.05791 17.5313 9.01902C17.0958 8.96599 16.6544 9.0416 16.2615 9.23652C16.132 8.99356 15.9503 8.78229 15.7295 8.61787C15.5086 8.45344 15.2541 8.33995 14.9843 8.28552C14.8174 8.25257 14.6468 8.24323 14.4773 8.25627ZM14.5358 9.00477C14.7675 8.98693 14.999 9.04187 15.198 9.16194C15.397 9.28201 15.5535 9.4612 15.6458 9.67452C15.5685 9.75242 15.497 9.83589 15.432 9.92427C15.4029 9.96411 15.382 10.0093 15.3704 10.0572C15.3588 10.1051 15.3568 10.1549 15.3644 10.2036C15.3798 10.302 15.4337 10.3902 15.5141 10.4489C15.5946 10.5076 15.6951 10.5319 15.7934 10.5165C15.8422 10.5089 15.8889 10.4917 15.931 10.466C15.9731 10.4403 16.0097 10.4066 16.0388 10.3668C16.196 10.1509 16.4081 9.98102 16.6531 9.8747C16.8981 9.76839 17.167 9.72951 17.4321 9.7621C17.6972 9.79468 17.9487 9.89755 18.1606 10.06C18.3726 10.2225 18.5372 10.4387 18.6375 10.6863C18.6366 10.7752 18.6673 10.8615 18.7242 10.9299C18.781 10.9982 18.8603 11.0442 18.9479 11.0595C19.0355 11.0748 19.1256 11.0585 19.2023 11.0135C19.279 10.9685 19.3372 10.8977 19.3665 10.8138C19.4082 10.6894 19.4742 10.5746 19.5606 10.476C19.647 10.3774 19.7522 10.297 19.87 10.2393C19.9878 10.1817 20.1158 10.148 20.2467 10.1403C20.3776 10.1326 20.5088 10.1509 20.6325 10.1943C21.1553 10.375 21.4305 10.9398 21.252 11.4693C21.2346 11.5163 21.2268 11.5663 21.2291 11.6164C21.2314 11.6665 21.2437 11.7156 21.2653 11.7608C21.2869 11.8061 21.3174 11.8465 21.3549 11.8798C21.3924 11.9131 21.4362 11.9385 21.4837 11.9545C21.5312 11.9706 21.5814 11.9769 21.6314 11.9732C21.6814 11.9695 21.7302 11.9559 21.7748 11.933C21.8194 11.9101 21.859 11.8785 21.8912 11.8401C21.9234 11.8017 21.9475 11.7572 21.9623 11.7093C21.9908 11.6253 22.0058 11.5398 22.0208 11.455C22.3703 11.6995 22.5608 12.127 22.4828 12.5718C22.4351 12.8495 22.2844 13.099 22.0609 13.2705C21.8373 13.4421 21.5573 13.523 21.2768 13.4973C20.9959 13.4735 20.7343 13.3449 20.5441 13.137C20.3538 12.929 20.2488 12.6571 20.25 12.3753C20.251 12.3041 20.2317 12.234 20.1943 12.1734C20.157 12.1128 20.1031 12.064 20.0391 12.0329C19.975 12.0017 19.9035 11.9894 19.8327 11.9975C19.7619 12.0055 19.6949 12.0335 19.6395 12.0783C19.4724 12.0289 19.2992 12.0032 19.125 12.0018C18.6277 12.0026 18.151 12.2006 17.7995 12.5524C17.448 12.9041 17.2504 13.381 17.25 13.8783C17.2497 13.9073 17.2527 13.9362 17.259 13.9645C17.2528 13.9921 17.2498 14.0203 17.25 14.0485V15.781C17.25 16.1815 16.9275 16.5018 16.5 16.5018C16.0725 16.5018 15.75 16.1815 15.75 15.7818V13.8888C15.75 13.0765 15.0713 12.4188 14.2545 12.4188H14.2455C13.428 12.4188 12.75 13.0743 12.75 13.8873V14.0485C12.7487 14.0577 12.7477 14.067 12.747 14.0763L12.7425 14.2608C12.7425 14.2635 12.7425 14.2663 12.7425 14.269C12.7425 14.665 12.4193 14.986 11.9985 14.986H11.994C11.8984 14.9914 11.8027 14.9773 11.7128 14.9445C11.6229 14.9116 11.5406 14.8608 11.4709 14.7951C11.4013 14.7294 11.3458 14.6502 11.3078 14.5623C11.2698 14.4745 11.2502 14.3798 11.25 14.284V13.7388H11.2545V12.7968L11.25 12.0648C11.25 11.656 11.4383 11.2713 11.76 11.023C12.0803 10.7755 12.4935 10.6938 12.8835 10.798C12.888 10.8108 12.888 10.8243 12.8933 10.837C12.9315 10.9289 13.0048 11.0018 13.0968 11.0397C13.1889 11.0777 13.2922 11.0774 13.3841 11.0391C13.476 11.0009 13.5489 10.9276 13.5869 10.8356C13.6248 10.7435 13.6245 10.6402 13.5863 10.5483C13.5082 10.3616 13.4825 10.1571 13.512 9.95691C13.5415 9.7567 13.625 9.56832 13.7535 9.41202C13.95 9.17202 14.2335 9.02802 14.5358 9.00477ZM19.125 12.7518C19.2773 12.7518 19.4273 12.7923 19.5705 12.8545C19.6685 13.2264 19.8784 13.5591 20.1718 13.8077C20.4652 14.0563 20.8279 14.2087 21.2108 14.2443C21.396 14.2608 21.5753 14.2413 21.75 14.2045V25.2693C21.75 25.822 21.3203 26.2525 20.775 26.2525H12.969C12.423 26.2525 11.994 25.822 11.994 25.27V15.7353H11.9978C12.8138 15.7353 13.4918 15.0798 13.4918 14.2683L13.4948 14.1333C13.4982 14.1129 13.4999 14.0924 13.5 14.0718V13.8873C13.5 13.4905 13.824 13.1673 14.2455 13.1673H14.2545C14.676 13.1673 15 13.4905 15 13.8873V15.781C15 16.5948 15.6803 17.2518 16.5 17.2518C17.3198 17.2518 18 16.5948 18 15.7818V14.0485C18.0004 14.0193 17.9974 13.9901 17.991 13.9615C17.9971 13.9342 18.0001 13.9063 18 13.8783C17.9998 13.7304 18.0288 13.584 18.0852 13.4473C18.1417 13.3106 18.2245 13.1864 18.329 13.0818C18.4335 12.9772 18.5575 12.8942 18.6941 12.8375C18.8307 12.7809 18.9771 12.7518 19.125 12.7518ZM22.5 15.7518H24.1245C24.4995 15.7518 24.75 16.0023 24.75 16.3713V22.6488C24.75 23.017 24.4995 23.2675 24.1245 23.2675H22.5V15.7518ZM13.869 17.5113C13.8198 17.5121 13.7711 17.5225 13.7259 17.5421C13.6807 17.5617 13.6398 17.59 13.6056 17.6253C13.5713 17.6607 13.5444 17.7025 13.5262 17.7483C13.5081 17.7941 13.4992 17.843 13.5 17.8923V24.5995C13.5 24.699 13.5395 24.7944 13.6098 24.8647C13.6802 24.935 13.7755 24.9745 13.875 24.9745C13.9745 24.9745 14.0698 24.935 14.1402 24.8647C14.2105 24.7944 14.25 24.699 14.25 24.5995V17.8923C14.2508 17.842 14.2415 17.7921 14.2227 17.7455C14.2038 17.6989 14.1758 17.6566 14.1402 17.6211C14.1047 17.5855 14.0623 17.5575 14.0158 17.5386C13.9692 17.5198 13.9193 17.5105 13.869 17.5113ZM16.869 17.5113C16.8198 17.5121 16.7711 17.5225 16.7259 17.5421C16.6807 17.5617 16.6398 17.59 16.6056 17.6253C16.5713 17.6607 16.5444 17.7025 16.5262 17.7483C16.5081 17.7941 16.4992 17.843 16.5 17.8923V24.5995C16.5 24.699 16.5395 24.7944 16.6098 24.8647C16.6802 24.935 16.7755 24.9745 16.875 24.9745C16.9745 24.9745 17.0698 24.935 17.1402 24.8647C17.2105 24.7944 17.25 24.699 17.25 24.5995V17.8923C17.2508 17.842 17.2415 17.7921 17.2227 17.7455C17.2038 17.6989 17.1758 17.6566 17.1402 17.6211C17.1047 17.5855 17.0623 17.5575 17.0158 17.5386C16.9692 17.5198 16.9193 17.5105 16.869 17.5113ZM19.869 17.5113C19.8198 17.5121 19.7711 17.5225 19.7259 17.5421C19.6807 17.5617 19.6398 17.59 19.6056 17.6253C19.5713 17.6607 19.5444 17.7025 19.5262 17.7483C19.5081 17.7941 19.4992 17.843 19.5 17.8923V24.5995C19.5 24.699 19.5395 24.7944 19.6098 24.8647C19.6802 24.935 19.7755 24.9745 19.875 24.9745C19.9745 24.9745 20.0698 24.935 20.1402 24.8647C20.2105 24.7944 20.25 24.699 20.25 24.5995V17.8923C20.2508 17.842 20.2415 17.7921 20.2227 17.7455C20.2038 17.6989 20.1758 17.6566 20.1402 17.6211C20.1047 17.5855 20.0623 17.5575 20.0158 17.5386C19.9692 17.5198 19.9193 17.5105 19.869 17.5113Z" fill="#4E1173"/>
</svg>
