<svg width="36" height="36" viewBox="0 0 36 36" fill="none" xmlns="http://www.w3.org/2000/svg">
<circle cx="18" cy="18" r="18" fill="#F7ECFF"/>
<g clip-path="url(#clip0_3422_9933)">
<path d="M16.0797 12.9692C16.0047 12.9317 15.9297 12.9317 15.8547 12.9317C15.5922 12.9317 15.3297 13.0817 15.2172 13.3817C15.1422 13.5317 15.1422 13.7192 15.2172 13.9067C15.2922 14.0567 15.4422 14.2067 15.5922 14.2442C15.7422 14.3192 15.9297 14.3192 16.1172 14.2442C16.2672 14.1692 16.4172 14.0192 16.4922 13.8692C16.6047 13.4567 16.4172 13.0817 16.0797 12.9692ZM20.2047 13.2317C20.1297 13.1942 20.0547 13.1942 19.9797 13.1942C19.8672 13.1942 19.7922 13.2317 19.7172 13.2692C19.5672 13.3442 19.4172 13.4942 19.3797 13.6442C19.2672 13.9817 19.4172 14.3567 19.7922 14.5067C20.1297 14.6192 20.5047 14.4692 20.6547 14.0942C20.7297 13.9067 20.7297 13.7567 20.6547 13.5692C20.5047 13.4192 20.3547 13.3067 20.2047 13.2317ZM18.3672 15.4067C18.2547 15.4067 18.1797 15.4442 18.1047 15.5192C17.8797 15.7817 17.6172 15.8942 17.2047 15.5567C17.0547 15.4442 16.8297 15.4817 16.6797 15.6317C16.5672 15.7817 16.6047 16.0067 16.7547 16.1567C17.4297 16.6817 18.1047 16.6067 18.6297 16.0067C18.7797 15.8567 18.7422 15.6317 18.5922 15.4817C18.5172 15.4442 18.4422 15.4067 18.3672 15.4067Z" fill="#4E1173"/>
<path d="M11.1656 8.28231L11.4281 10.1948L11.4281 10.2698L12.2156 12.6698C12.1031 12.9323 12.1406 13.2323 12.2531 13.4948C12.3656 13.7573 12.5906 13.9448 12.8531 14.0573C12.9281 15.6323 13.8281 17.0573 15.2156 17.9198C15.1781 19.6073 14.8781 20.8823 14.4281 21.5198L14.4281 21.5573C14.4281 21.5573 14.4281 21.5948 14.3906 21.5948L12.5531 25.4948C12.4781 25.6823 12.5531 25.8698 12.7031 25.9448L11.5031 28.1948C11.4281 28.3823 11.3906 28.5698 11.3906 28.7198C11.3906 29.2073 11.6906 29.6573 12.1406 29.8823C12.4406 30.0323 12.7781 30.0323 13.1156 29.9198C13.4531 29.8073 13.6781 29.5823 13.8281 29.2823L15.0281 27.0323C15.1406 27.0698 15.2906 26.9948 15.3656 26.9198C15.7031 26.5073 16.1906 26.0948 16.8656 25.6448C17.6906 25.1198 18.7406 25.1573 19.4906 25.7573C20.2031 26.3198 20.9156 26.9573 20.9156 26.9573C20.9906 27.0323 21.1406 27.0698 21.2531 27.0323L22.4531 29.2448C22.6031 29.5448 22.8656 29.8073 23.1656 29.9198C23.5031 30.0323 23.8406 30.0323 24.1406 29.8823C24.5906 29.6573 24.8906 29.2073 24.8906 28.7198C24.8906 28.5323 24.8531 28.3448 24.7781 28.1573L23.5781 25.9448C23.6156 25.9073 23.6906 25.8323 23.6906 25.7948C23.7281 25.7198 23.7281 25.6073 23.6906 25.5323L21.7406 21.5948C21.7406 21.5948 21.0281 19.9073 20.9531 17.8073C21.6281 17.3198 22.1531 16.6073 22.4531 15.8198C22.5281 15.6323 22.6406 15.2948 22.7156 14.9948C23.0531 14.9198 23.3531 14.6573 23.5031 14.3198C23.5781 14.1698 23.5781 14.0198 23.5781 13.8698C23.6156 13.8698 23.6156 13.8323 23.6531 13.8323C23.7281 13.7573 23.8031 13.6448 23.8031 13.5323C23.8031 13.4948 23.8031 13.1573 23.7281 12.7448L23.7281 12.7073L24.5156 10.3073L24.5156 10.2323L24.8156 8.31981C25.0031 7.71981 24.7031 7.04481 24.0656 6.81981C23.9156 6.78231 23.8031 6.74481 23.6531 6.74481C23.3531 6.74481 23.0156 6.85731 22.7906 7.08231C22.6781 7.19481 22.5656 7.34481 22.4906 7.53231L22.4906 7.60731L22.1906 9.44481C20.7656 7.56981 18.1031 6.14481 17.9906 6.06981C17.9906 5.99481 17.9156 5.99481 17.8406 5.99481C17.7281 5.99481 17.6531 6.03231 17.5781 6.10731C17.4656 6.21981 15.0281 8.69481 13.9031 10.0448L13.7531 9.55731L13.4531 7.60731L13.4531 7.53231C13.3781 7.34481 13.3031 7.19481 13.1531 7.08231C12.9281 6.85731 12.6281 6.74481 12.2906 6.74481C12.1406 6.74481 12.0281 6.78231 11.8781 6.81981C11.5781 6.93231 11.3156 7.15731 11.2031 7.45731C11.0906 7.68231 11.0531 8.01981 11.1656 8.28231ZM13.1531 28.9448C13.0781 29.0948 12.9656 29.1698 12.8531 29.2448C12.7031 29.2823 12.5531 29.2823 12.4406 29.2448C12.2531 29.1698 12.1031 28.9448 12.1031 28.7573C12.1031 28.6823 12.1031 28.6073 12.1406 28.5323L13.3406 26.2823L13.7906 26.5073L14.3156 26.7698L13.1531 28.9448ZM24.1406 28.7198C24.1406 28.9448 24.0281 29.1323 23.8031 29.2073C23.7656 29.2448 23.6906 29.2823 23.6156 29.2823C23.5406 29.2823 23.5031 29.2823 23.4281 29.2448C23.2781 29.2073 23.1656 29.0948 23.0906 28.9448L21.8906 26.7323L22.9031 26.2448L24.1031 28.4948C24.1406 28.5698 24.1406 28.6448 24.1406 28.7198ZM22.6781 25.5698L21.2531 26.2448L21.2156 26.2448C20.9531 26.0198 20.4656 25.5698 19.9406 25.1573C18.9281 24.3323 17.5406 24.2948 16.4531 25.0073C15.8531 25.4198 15.3281 25.8323 14.9906 26.2073L13.3781 25.4573L14.9531 22.1198L21.1781 22.0823L22.8656 25.4948L22.6781 25.5698ZM20.9156 21.3698L15.3656 21.3698C15.7406 20.5073 15.8906 19.3448 15.9656 18.2948L16.1906 18.4073L16.2281 18.4073C16.7156 18.5948 17.2031 18.6698 17.6906 18.7073C18.6281 18.7823 19.4906 18.5573 20.2406 18.1823C20.3531 19.6073 20.6906 20.7323 20.9156 21.3698ZM22.8281 13.9823C22.7531 14.1323 22.6031 14.2448 22.4156 14.2448C22.2281 14.2448 22.0781 14.3573 22.0406 14.5448C22.0031 14.7698 21.8906 15.2198 21.7781 15.5198C21.1781 17.1323 19.5281 18.1073 17.7281 17.9948C17.2781 17.9573 16.8656 17.8823 16.4531 17.7323C16.4156 17.7323 16.4156 17.7323 16.3781 17.6948C14.6906 17.0573 13.5281 15.4823 13.5281 13.7948C13.5281 13.6073 13.3781 13.4573 13.1906 13.4198C13.1906 13.4198 13.1531 13.4198 13.1156 13.3823C12.9281 13.3073 12.8156 13.0823 12.8906 12.8948L12.8906 12.8198C12.9281 12.7823 12.9281 12.7448 12.9656 12.7448C13.0031 12.7073 13.0781 12.6698 13.1531 12.6323L13.2281 12.6323C13.3406 12.6323 13.4906 12.6323 13.7156 12.5948L13.7531 12.5948C13.8656 12.5573 14.0156 12.5198 14.1656 12.4823C14.2406 12.4448 14.3156 12.4448 14.4281 12.4073L14.4656 12.4073C14.5781 12.3698 14.6531 12.3323 14.7656 12.2948C15.2156 12.1073 15.7031 11.8073 16.3406 11.3948L16.3781 11.3573C16.5656 11.4698 16.8656 11.6573 17.2031 11.8448C17.3156 11.9198 17.4656 11.9573 17.5781 12.0323L17.6156 12.0323C17.7281 12.0698 17.8781 12.1448 18.0281 12.1823L18.0656 12.1823L18.5156 12.2948L18.5906 12.2948C18.7406 12.3323 18.9281 12.3698 19.0781 12.3698C19.2656 12.4073 19.4156 12.4073 19.6031 12.4073L20.0906 12.4073C20.1656 12.4073 20.2031 12.4073 20.2781 12.3698C20.3531 12.3698 20.3906 12.3698 20.4656 12.3323C20.5406 12.3323 20.6156 12.2948 20.6531 12.2948C20.7281 12.2948 20.7656 12.2573 20.8406 12.2573C20.9156 12.2573 20.9906 12.2198 21.0281 12.2198C21.1406 12.3698 21.2906 12.5948 21.5156 12.7823C21.7406 13.0073 22.0406 13.2323 22.3781 13.4198C22.3781 13.4198 22.4156 13.4198 22.4156 13.4573L22.4531 13.4573C22.8281 13.6448 22.9031 13.8323 22.8281 13.9823ZM22.9031 9.74481L22.9031 9.66981L23.2406 7.71981C23.2781 7.64481 23.2781 7.60731 23.3531 7.56981C23.4656 7.45731 23.6906 7.38231 23.8406 7.45731C24.1031 7.53231 24.2156 7.83231 24.1406 8.05731L24.1406 8.13231L23.8406 10.0448L23.3906 11.3573C23.3531 11.2448 23.3156 11.1323 23.2406 11.0198C23.2406 10.9823 23.2031 10.9448 23.2031 10.9448L23.2031 10.9073C23.2031 10.8698 23.1656 10.8698 23.1656 10.8323L23.1656 10.7948C23.0906 10.6448 22.9781 10.4948 22.9031 10.3823C22.8656 10.3073 22.8281 10.2698 22.7906 10.1948L22.9031 9.74481ZM17.9156 6.81981C18.6656 7.26981 21.1031 8.76981 22.0406 10.4573C22.0781 10.5698 22.1906 10.6823 22.2656 10.7948C22.3406 10.9073 22.4531 11.0573 22.4906 11.1698C22.4906 11.2073 22.5281 11.2073 22.5281 11.2448C22.6781 11.5073 22.7531 11.7698 22.8281 12.0323C22.8281 12.0698 22.8281 12.1073 22.8656 12.1448C22.9031 12.2198 22.9031 12.2948 22.9406 12.3698C22.9406 12.4448 22.9781 12.5198 22.9781 12.5573L22.9781 12.8573L22.9406 12.8573C22.9406 12.8573 22.9031 12.8573 22.9031 12.8198C22.5656 12.6323 22.3031 12.4448 22.1156 12.2573C21.8156 11.9198 21.6656 11.6573 21.6656 11.6573C21.6281 11.5823 21.5531 11.5073 21.4781 11.4698C21.4031 11.4323 21.2906 11.4323 21.2156 11.4698C18.7406 12.3323 16.6781 10.6448 16.6781 10.6448C16.6406 10.6073 16.5656 10.5698 16.4906 10.5698L16.3406 10.5698C16.3031 10.5698 16.2656 10.6073 16.2656 10.6073C16.2281 10.6448 16.1906 10.6448 16.1531 10.6823C14.8781 11.5448 14.0531 11.8073 13.6406 11.8823C13.6781 11.7698 13.7156 11.6198 13.7531 11.5073C13.8281 11.3198 13.9406 11.1323 14.0531 10.9448C14.6156 10.1948 17.2031 7.56981 17.9156 6.81981ZM11.8781 7.71981C11.9156 7.60731 12.0281 7.53231 12.1406 7.45731C12.3281 7.38231 12.5156 7.41981 12.6656 7.56981C12.7031 7.60731 12.7406 7.64481 12.7781 7.71981L13.0781 9.66981L13.0781 9.74481L13.4156 10.7573C13.3781 10.7948 13.3781 10.8323 13.3406 10.9073C13.3406 10.9448 13.3031 10.9823 13.3031 11.0198C13.2656 11.1323 13.1906 11.2448 13.1531 11.3198L13.0406 11.6573C13.0406 11.6948 13.0406 11.7323 13.0031 11.7323C12.9656 11.8073 12.9656 11.9198 12.9656 11.9948L12.9656 12.0323L12.9281 12.0323C12.8906 12.0323 12.8531 12.0698 12.8531 12.0698L12.1781 10.0823L11.8781 8.16981L11.8781 8.09481C11.8031 7.98231 11.8031 7.83231 11.8781 7.71981Z" fill="#4E1173"/>
</g>
<defs>
<clipPath id="clip0_3422_9933">
<rect width="24" height="24" fill="white" transform="translate(6 6)"/>
</clipPath>
</defs>
</svg>
