<svg width="36" height="36" viewBox="0 0 36 36" fill="none" xmlns="http://www.w3.org/2000/svg">
<circle cx="18" cy="18" r="18" fill="#F7ECFF"/>
<path fill-rule="evenodd" clip-rule="evenodd" d="M11.108 10.867C11.825 10.77 12.703 10.753 13.759 10.751C13.8217 9.93446 14.1904 9.17171 14.7913 8.61531C15.3922 8.0589 16.1811 7.74986 17 7.75H19C19.8186 7.75009 20.607 8.05911 21.2077 8.61528C21.8084 9.17145 22.177 9.93381 22.24 10.75C23.297 10.753 24.175 10.77 24.892 10.867C25.792 10.987 26.55 11.247 27.152 11.848C27.754 12.45 28.012 13.208 28.134 14.108C28.25 14.975 28.25 16.078 28.25 17.445V21.555C28.25 22.922 28.25 24.025 28.134 24.892C28.012 25.792 27.754 26.55 27.152 27.152C26.55 27.754 25.792 28.012 24.892 28.134C24.025 28.25 22.922 28.25 21.555 28.25H14.445C13.078 28.25 11.975 28.25 11.108 28.134C10.208 28.012 9.45 27.754 8.848 27.152C8.246 26.55 7.988 25.792 7.867 24.892C7.75 24.025 7.75 22.922 7.75 21.555V17.445C7.75 16.078 7.75 14.975 7.867 14.108C7.987 13.208 8.247 12.45 8.848 11.848C9.45 11.246 10.208 10.988 11.108 10.867ZM20.732 10.75H15.268C15.3281 10.3335 15.5363 9.95263 15.8544 9.67714C16.1725 9.40165 16.5792 9.25001 17 9.25H19C19.4208 9.25001 19.8275 9.40165 20.1456 9.67714C20.4637 9.95263 20.6719 10.3335 20.732 10.75ZM11.308 26.647C10.574 26.548 10.186 26.367 9.909 26.091C9.632 25.814 9.452 25.426 9.353 24.691C9.252 23.936 9.25 22.935 9.25 21.5V18.13C12.938 19.678 15.092 20.524 17.36 20.63C17.786 20.65 18.214 20.65 18.64 20.63C20.908 20.524 23.062 19.678 26.75 18.13V21.5C26.75 22.935 26.748 23.936 26.647 24.692C26.548 25.426 26.367 25.814 26.091 26.091C25.814 26.368 25.426 26.548 24.691 26.647C23.936 26.748 22.935 26.75 21.5 26.75H14.5C13.065 26.75 12.063 26.748 11.308 26.647ZM26.748 16.503C22.623 18.238 20.639 19.035 18.57 19.131C18.19 19.149 17.81 19.149 17.43 19.131C15.36 19.035 13.377 18.238 9.252 16.503C9.257 15.58 9.277 14.875 9.353 14.308C9.452 13.574 9.633 13.186 9.909 12.909C10.186 12.632 10.574 12.452 11.309 12.353C12.063 12.252 13.065 12.25 14.5 12.25H21.5C22.935 12.25 23.936 12.252 24.692 12.353C25.426 12.452 25.814 12.633 26.091 12.909C26.368 13.186 26.548 13.574 26.647 14.309C26.723 14.875 26.743 15.579 26.748 16.503Z" fill="#4E1173"/>
</svg>
