<svg width="36" height="36" viewBox="0 0 36 36" fill="none" xmlns="http://www.w3.org/2000/svg">
<circle cx="18" cy="18" r="18" fill="#F7ECFF"/>
<g clip-path="url(#clip0_3422_9910)">
<path d="M16.5139 15.7335C16.4788 15.7335 16.4436 15.7218 16.4124 15.7061C16.3538 15.671 16.3186 15.6085 16.3186 15.5382V12.5694C16.3186 12.503 16.3538 12.4405 16.4124 12.4014C16.471 12.3624 16.5413 12.3624 16.6038 12.3936L19.5725 13.878C19.6389 13.9093 19.6819 13.9796 19.6819 14.0538C19.6819 14.128 19.6389 14.1944 19.5725 14.2296L16.6038 15.7139C16.5725 15.7257 16.5452 15.7335 16.5139 15.7335ZM16.7092 12.8858V15.2218L19.0452 14.0538L16.7092 12.8858ZM16.7092 27.9991H11.7092C11.6116 27.9991 11.5256 27.9249 11.5139 27.8272L10.717 20.8116C10.6858 20.5343 10.7756 20.253 10.9592 20.046C11.1467 19.8389 11.4124 19.7179 11.6936 19.7179C12.0178 19.7179 12.3069 19.8741 12.4866 20.1163C12.5061 20.0889 12.5295 20.0616 12.553 20.0382C12.7405 19.835 13.0022 19.7179 13.2756 19.7179H13.4241C13.7444 19.7179 14.0335 19.8741 14.2131 20.1124C14.3928 19.8741 14.678 19.7179 15.0022 19.7179H15.1506C15.4241 19.7179 15.6897 19.835 15.8733 20.0382C15.8967 20.0616 15.9163 20.0889 15.9397 20.1163C16.1194 19.8741 16.4045 19.7179 16.7327 19.7179C17.0139 19.7179 17.2795 19.8389 17.467 20.046C17.6545 20.253 17.7405 20.5343 17.7092 20.8116L16.9045 27.8272C16.8928 27.9249 16.8069 27.9991 16.7092 27.9991ZM11.885 27.6085H16.5374L17.3147 20.7686C17.3342 20.6007 17.2795 20.4327 17.1663 20.3077C17.053 20.1827 16.8928 20.1085 16.7249 20.1085C16.4163 20.1085 16.1624 20.3429 16.135 20.6475L16.1233 20.7804C16.1233 20.7804 16.1233 20.7804 16.1233 20.7843L16.1038 21.0225C16.096 21.1319 15.9983 21.21 15.8928 21.1983C15.7835 21.1905 15.7053 21.0929 15.717 20.9874L15.7366 20.7491C15.7522 20.5811 15.6975 20.421 15.5842 20.2999C15.471 20.1749 15.3147 20.1085 15.1467 20.1085H14.9983C14.6702 20.1085 14.4045 20.3741 14.4045 20.7022V21.0069C14.4045 21.1163 14.3186 21.2022 14.2092 21.2022C14.0999 21.2022 14.0139 21.1163 14.0139 21.0069V20.7022C14.0139 20.3741 13.7483 20.1085 13.4202 20.1085H13.2717C13.1038 20.1085 12.9475 20.1749 12.8342 20.2999C12.721 20.4249 12.6663 20.5811 12.6819 20.7491L12.7014 20.9874C12.7092 21.0968 12.6311 21.1905 12.5256 21.1983C12.4202 21.2061 12.3225 21.128 12.3147 21.0225L12.2952 20.7843C12.2952 20.7843 12.2952 20.7843 12.2952 20.7804L12.2835 20.6475C12.2561 20.3429 12.0022 20.1085 11.6936 20.1085C11.5256 20.1085 11.3655 20.1788 11.2522 20.3077C11.1389 20.4366 11.0881 20.6007 11.1038 20.7686L11.885 27.6085Z" fill="#4E1173"/>
<path d="M12.8801 23.6699L12.7031 20.9922L12.3134 21.0179L12.4903 23.6956L12.8801 23.6699Z" fill="#4E1173"/>
<path d="M13.1559 27.7926L12.9102 24.0742L12.5204 24.1L12.7662 27.8183L13.1559 27.7926Z" fill="#4E1173"/>
<path d="M14.4062 24.6406H14.0156V27.8047H14.4062V24.6406Z" fill="#4E1173"/>
<path d="M14.4062 21.0078H14.0156V23.0781H14.4062V21.0078Z" fill="#4E1173"/>
<path d="M15.8821 24.1292L15.4922 24.1055L15.2676 27.7899L15.6575 27.8136L15.8821 24.1292Z" fill="#4E1173"/>
<path d="M16.1046 21.0179L15.7148 20.9922L15.5379 23.6699L15.9277 23.6956L16.1046 21.0179Z" fill="#4E1173"/>
<path d="M14.2109 24.8359C13.207 24.8359 12.4531 24.418 12.4531 23.8594C12.4531 23.3008 13.207 22.8828 14.2109 22.8828C15.2148 22.8828 15.9687 23.3008 15.9687 23.8594C15.9687 24.418 15.2148 24.8359 14.2109 24.8359ZM14.2109 23.2734C13.4297 23.2734 12.8437 23.582 12.8437 23.8594C12.8437 24.1367 13.4297 24.4453 14.2109 24.4453C14.9922 24.4453 15.5781 24.1367 15.5781 23.8594C15.5781 23.582 14.9922 23.2734 14.2109 23.2734ZM24.3281 28H20.8125C20.7148 28 20.6328 27.9258 20.6172 27.8281L19.875 21.9688C19.8672 21.9141 19.8867 21.8555 19.9219 21.8164C19.957 21.7734 20.0117 21.75 20.0703 21.75H25.0703C25.125 21.75 25.1797 21.7734 25.2187 21.8164C25.2539 21.8594 25.2734 21.9141 25.2656 21.9688L24.5234 27.8281C24.5117 27.9258 24.4258 28 24.3281 28ZM20.9844 27.6094H24.1562L24.8477 22.1406H20.293L20.9844 27.6094Z" fill="#4E1173"/>
<path d="M25.6953 21.75H19.4453V22.1406H25.6953V21.75Z" fill="#4E1173"/>
<path d="M25.0703 22.1406H20.0703C19.9609 22.1406 19.875 22.0547 19.875 21.9453C19.875 21.4062 20.3125 20.9688 20.8516 20.9688H24.2891C24.8281 20.9688 25.2656 21.4062 25.2656 21.9453C25.2656 22.0547 25.1797 22.1406 25.0703 22.1406ZM20.3008 21.75H24.8438C24.7617 21.5234 24.5469 21.3594 24.293 21.3594H20.8555C20.5977 21.3594 20.3789 21.5234 20.3008 21.75Z" fill="#4E1173"/>
<path d="M22.7673 21.1641H22.3767V18.9766C22.3767 18.918 22.4041 18.8594 22.4509 18.8242L23.6814 17.8477L23.9236 18.1523L22.7673 19.0703V21.1641ZM24.5876 25.9688H20.5564C20.4587 25.9688 20.3767 25.8945 20.3611 25.7969L20.1345 24C20.1267 23.9453 20.1462 23.8867 20.1814 23.8477C20.2166 23.8047 20.2712 23.7812 20.3298 23.7812H24.8142C24.8689 23.7812 24.9236 23.8047 24.9626 23.8477C24.9978 23.8906 25.0173 23.9453 25.0095 24L24.783 25.7969C24.7712 25.8945 24.6853 25.9688 24.5876 25.9688ZM20.7283 25.5781H24.4158L24.5955 24.1719H20.5525L20.7283 25.5781Z" fill="#4E1173"/>
<path d="M22.5703 18.1562H17.0156V18.5469H22.5703V18.1562Z" fill="#4E1173"/>
<path d="M10.8516 20.3828C10.7734 20.2422 10.7344 20.0781 10.7344 19.9141C10.7344 19.6758 10.8203 19.4492 10.9766 19.2695C10.9023 19.0469 10.9062 18.8047 11 18.582C11.0039 18.5703 11.0117 18.5586 11.0156 18.5469H8.19531C8.08594 18.5469 8 18.4609 8 18.3516V9.75781C8 9.64844 8.08594 9.5625 8.19531 9.5625H27.8047C27.9141 9.5625 28 9.64844 28 9.75781V18.3516C28 18.4609 27.9141 18.5469 27.8047 18.5469H24.1328V18.1562H27.6094V9.95312H8.39062V18.1562H11.4062C11.4883 18.1562 11.5625 18.207 11.5898 18.2852C11.6172 18.3633 11.5938 18.4492 11.5273 18.5039C11.4531 18.5664 11.3945 18.6445 11.3555 18.7344C11.2891 18.8945 11.2969 19.0742 11.375 19.2266C11.418 19.3086 11.3984 19.4062 11.3281 19.4648C11.1953 19.5781 11.1211 19.7383 11.1211 19.9141C11.1211 20.0117 11.1445 20.1094 11.1914 20.1953L10.8516 20.3828Z" fill="#4E1173"/>
<path d="M21.7891 19.7188H17.4922V20.1094H21.7891V19.7188Z" fill="#4E1173"/>
<path d="M26.7695 20.1094H23.3516V19.7188H26.7695C27.2344 19.7188 27.6094 19.3438 27.6094 18.8789V9.23047C27.6094 8.76562 27.2344 8.39062 26.7695 8.39062H9.23047C8.76562 8.39062 8.39062 8.76562 8.39062 9.23047V18.8789C8.39062 19.3438 8.76562 19.7188 9.23047 19.7188H10.9297V20.1094H9.23047C8.55078 20.1094 8 19.5586 8 18.8789V9.23047C8 8.55078 8.55078 8 9.23047 8H26.7695C27.4492 8 28 8.55078 28 9.23047V18.8789C28 19.5586 27.4492 20.1094 26.7695 20.1094Z" fill="#4E1173"/>
<path d="M17.5703 20.3828L17.2266 20.1953C17.2734 20.1094 17.2969 20.0117 17.2969 19.9141C17.2969 19.7422 17.2227 19.5781 17.0898 19.4648C17.0195 19.4062 17 19.3086 17.043 19.2266C17.1211 19.0742 17.1289 18.8906 17.0625 18.7344C16.9961 18.5742 16.8633 18.4531 16.6992 18.3984C16.6133 18.3711 16.5547 18.2852 16.5625 18.1953C16.5781 18.0234 16.5156 17.8516 16.3945 17.7305C16.2734 17.6094 16.1016 17.5469 15.9297 17.5625C15.8398 17.5703 15.7539 17.5156 15.7266 17.4258C15.6758 17.2617 15.5508 17.1289 15.3906 17.0625C15.2305 16.9961 15.0508 17.0039 14.8984 17.082C14.8164 17.125 14.7188 17.1055 14.6602 17.0352C14.5469 16.9023 14.3867 16.8281 14.2109 16.8281C14.0352 16.8281 13.875 16.9023 13.7617 17.0352C13.7031 17.1055 13.6055 17.125 13.5234 17.082C13.3711 17.0039 13.1875 16.9961 13.0313 17.0625C12.8711 17.1289 12.75 17.2617 12.6992 17.4258C12.6719 17.5117 12.5859 17.5703 12.4961 17.5625C12.3242 17.5469 12.1523 17.6094 12.0313 17.7305L11.7539 17.4531C11.9219 17.2852 12.1445 17.1836 12.3789 17.168C12.4844 16.957 12.6602 16.7891 12.8789 16.6992C13.0977 16.6094 13.3438 16.6016 13.5664 16.6758C13.7422 16.5195 13.9727 16.4336 14.2109 16.4336C14.4492 16.4336 14.6758 16.5195 14.8555 16.6758C15.0781 16.6016 15.3203 16.6055 15.543 16.6992C15.7617 16.7891 15.9414 16.957 16.043 17.168C16.2773 17.1836 16.5 17.2813 16.668 17.4531C16.8359 17.6211 16.9375 17.8438 16.9531 18.0781C17.1641 18.1836 17.332 18.3594 17.4219 18.5781C17.5117 18.7969 17.5195 19.043 17.4453 19.2656C17.6016 19.4414 17.6875 19.6719 17.6875 19.9102C17.6875 20.0781 17.6445 20.2383 17.5703 20.3828Z" fill="#4E1173"/>
</g>
<defs>
<clipPath id="clip0_3422_9910">
<rect width="20" height="20" fill="white" transform="translate(8 8)"/>
</clipPath>
</defs>
</svg>
