<svg width="36" height="36" viewBox="0 0 36 36" fill="none" xmlns="http://www.w3.org/2000/svg">
<circle cx="18" cy="18" r="18" fill="#F7ECFF"/>
<path d="M11.0899 21.4209H12.4204C12.9297 21.4209 13.418 21.2102 13.7781 20.8352C14.1382 20.4601 14.3404 19.9514 14.3404 19.4209V17.3659C14.3404 16.8355 14.1382 16.3268 13.7781 15.9517C13.418 15.5767 12.9297 15.3659 12.4204 15.3659H11.0899C10.5807 15.3659 10.0923 15.5767 9.73223 15.9517C9.37216 16.3268 9.16987 16.8355 9.16987 17.3659V19.4209C9.16987 19.9514 9.37216 20.4601 9.73223 20.8352C10.0923 21.2102 10.5807 21.4209 11.0899 21.4209ZM10.1299 17.3659C10.1299 17.1007 10.231 16.8464 10.4111 16.6588C10.5911 16.4713 10.8353 16.3659 11.0899 16.3659H12.4204C12.675 16.3659 12.9192 16.4713 13.0993 16.6588C13.2793 16.8464 13.3804 17.1007 13.3804 17.3659V19.4209C13.3804 19.6862 13.2793 19.9405 13.0993 20.128C12.9192 20.3156 12.675 20.4209 12.4204 20.4209H11.0899C10.8353 20.4209 10.5911 20.3156 10.4111 20.128C10.231 19.9405 10.1299 19.6862 10.1299 19.4209V17.3659ZM14.9395 23.8899C14.8376 23.9695 14.7096 24.0037 14.5836 23.9849C14.4576 23.9662 14.3439 23.896 14.2675 23.7899C14.1004 23.5565 13.8831 23.3671 13.633 23.2371C13.3829 23.107 13.107 23.0398 12.8275 23.0409H10.6828C10.2053 23.0417 9.74747 23.2398 9.40987 23.5916C9.07226 23.9435 8.88238 24.4205 8.88187 24.9179V25.8419C9.80335 26.1766 10.7788 26.3203 11.7532 26.2649C12.3633 26.2793 12.9735 26.2398 13.5772 26.1469C13.7028 26.1247 13.8316 26.1552 13.9355 26.2319C14.0394 26.3086 14.1098 26.4252 14.1312 26.5559C14.1525 26.6867 14.1232 26.8209 14.0496 26.9291C13.9759 27.0374 13.864 27.1107 13.7385 27.1329C13.0822 27.2357 12.4187 27.2799 11.7552 27.2649C10.5355 27.3437 9.31515 27.1213 8.19355 26.6159C8.11223 26.5751 8.0436 26.5113 7.99555 26.4317C7.94749 26.3521 7.92196 26.26 7.92188 26.1659V24.9179C7.92264 24.1554 8.21377 23.4244 8.73138 22.8852C9.249 22.346 9.95082 22.0427 10.6828 22.0419H12.8236C13.2523 22.0398 13.6754 22.1426 14.0589 22.342C14.4424 22.5414 14.7756 22.8318 15.0316 23.1899C15.1081 23.2959 15.1411 23.4292 15.1233 23.5604C15.1054 23.6917 15.0383 23.8102 14.9366 23.8899H14.9395ZM28.0819 24.9179V26.1659C28.082 26.2598 28.0567 26.3517 28.009 26.4313C27.9613 26.5109 27.8931 26.5748 27.8121 26.6159C26.6905 27.1213 25.4702 27.3437 24.2505 27.2649C23.587 27.2799 22.9235 27.2357 22.2672 27.1329C22.205 27.1219 22.1455 27.0983 22.0922 27.0633C22.0388 27.0283 21.9925 26.9828 21.9561 26.9292C21.9196 26.8756 21.8936 26.815 21.8797 26.751C21.8657 26.687 21.8639 26.6207 21.8745 26.5559C21.8975 26.426 21.9683 26.3106 22.0717 26.2342C22.1752 26.1578 22.3032 26.1265 22.4284 26.1469C23.0322 26.2398 23.6423 26.2793 24.2524 26.2649C25.2262 26.3201 26.201 26.1764 27.1219 25.8419V24.9179C27.1211 24.4206 26.9311 23.9439 26.5935 23.5923C26.256 23.2406 25.7983 23.0427 25.3209 23.0419H23.1801C22.9006 23.0408 22.6247 23.108 22.3746 23.2381C22.1245 23.3681 21.9072 23.5575 21.7401 23.7909C21.7023 23.8435 21.6549 23.8877 21.6007 23.9212C21.5464 23.9546 21.4864 23.9766 21.424 23.9859C21.3616 23.9952 21.298 23.9916 21.237 23.9753C21.1759 23.959 21.1185 23.9303 21.0681 23.8909C21.0177 23.8515 20.9752 23.8022 20.9431 23.7457C20.911 23.6892 20.8899 23.6266 20.8809 23.5616C20.872 23.4966 20.8755 23.4305 20.8911 23.3668C20.9068 23.3032 20.9343 23.2435 20.9721 23.1909C21.2281 22.8328 21.5613 22.5424 21.9449 22.343C22.3284 22.1436 22.7515 22.0408 23.1801 22.0429H25.3209C26.0528 22.0437 26.7544 22.3469 27.272 22.8858C27.7896 23.4248 28.0809 24.1556 28.0819 24.9179ZM17.5334 18.3329C17.1006 18.3329 16.6855 18.512 16.3794 18.8309C16.0733 19.1497 15.9014 19.5821 15.9014 20.0329V21.5219C15.9014 21.9728 16.0733 22.4052 16.3794 22.724C16.6855 23.0428 17.1006 23.2219 17.5334 23.2219H18.4704C18.9032 23.2219 19.3183 23.0428 19.6244 22.724C19.9304 22.4052 20.1024 21.9728 20.1024 21.5219V20.0329C20.1024 19.5821 19.9304 19.1497 19.6244 18.8309C19.3183 18.512 18.9032 18.3329 18.4704 18.3329H17.5334ZM19.1424 20.0329V21.5219C19.1424 21.7076 19.0716 21.8856 18.9455 22.0169C18.8195 22.1482 18.6486 22.2219 18.4704 22.2219H17.5334C17.3552 22.2219 17.1842 22.1482 17.0582 22.0169C16.9322 21.8856 16.8614 21.7076 16.8614 21.5219V20.0329C16.8614 19.8473 16.9322 19.6692 17.0582 19.538C17.1842 19.4067 17.3552 19.3329 17.5334 19.3329H18.4704C18.6486 19.3329 18.8195 19.4067 18.9455 19.538C19.0716 19.6692 19.1424 19.8473 19.1424 20.0329ZM18.8246 23.7949H17.1792C16.5864 23.7952 16.018 24.0405 15.5988 24.477C15.1796 24.9135 14.9438 25.5055 14.9433 26.1229V27.0829C14.9433 27.1769 14.9687 27.2689 15.0166 27.3485C15.0645 27.4281 15.1329 27.492 15.214 27.5329C16.0905 27.929 17.0444 28.1037 17.998 28.0429C18.9516 28.1037 19.9055 27.929 20.782 27.5329C20.8632 27.492 20.9316 27.4281 20.9795 27.3485C21.0274 27.2689 21.0528 27.1769 21.0528 27.0829V26.1229C21.0523 25.5069 20.8176 24.9161 20.4 24.4798C19.9824 24.0436 19.416 23.7973 18.8246 23.7949ZM20.1004 26.7549C19.4242 26.9861 18.7125 27.0838 18.0019 27.0429C17.2912 27.0838 16.5795 26.9861 15.9033 26.7549V26.1229C15.9038 25.7707 16.0384 25.4331 16.2776 25.1841C16.5168 24.9352 16.841 24.7952 17.1792 24.7949H18.8246C19.1627 24.7952 19.4869 24.9352 19.7261 25.1841C19.9653 25.4331 20.0999 25.7707 20.1004 26.1229V26.7549ZM21.6633 19.4209C21.6633 19.9514 21.8656 20.4601 22.2257 20.8352C22.5857 21.2102 23.0741 21.4209 23.5833 21.4209H24.9139C25.4231 21.4209 25.9114 21.2102 26.2715 20.8352C26.6316 20.4601 26.8339 19.9514 26.8339 19.4209V17.3659C26.8339 16.8355 26.6316 16.3268 26.2715 15.9517C25.9114 15.5767 25.4231 15.3659 24.9139 15.3659H23.5833C23.0741 15.3659 22.5857 15.5767 22.2257 15.9517C21.8656 16.3268 21.6633 16.8355 21.6633 17.3659V19.4209ZM22.6233 17.3659C22.6233 17.1007 22.7245 16.8464 22.9045 16.6588C23.0845 16.4713 23.3287 16.3659 23.5833 16.3659H24.9139C25.1685 16.3659 25.4127 16.4713 25.5927 16.6588C25.7727 16.8464 25.8739 17.1007 25.8739 17.3659V19.4209C25.8739 19.6862 25.7727 19.9405 25.5927 20.128C25.4127 20.3156 25.1685 20.4209 24.9139 20.4209H23.5833C23.3287 20.4209 23.0845 20.3156 22.9045 20.128C22.7245 19.9405 22.6233 19.6862 22.6233 19.4209V17.3659ZM17.0131 15.5779C17.3117 15.7648 17.6535 15.8636 18.0019 15.8636C18.3502 15.8636 18.6921 15.7648 18.9907 15.5779C21.4665 14.0339 21.8361 12.3629 21.8361 11.5049C21.8571 11.1899 21.8177 10.8736 21.7202 10.5745C21.6228 10.2754 21.4692 9.99954 21.2685 9.76282C21.0678 9.52611 20.8239 9.33332 20.551 9.19565C20.2782 9.05799 19.9817 8.97821 19.679 8.96094C19.0674 8.96126 18.4748 9.1821 18.0019 9.58594C17.5289 9.1821 16.9363 8.96126 16.3248 8.96094C16.0223 8.97822 15.7261 9.05791 15.4534 9.19538C15.1807 9.33286 14.937 9.52538 14.7363 9.76177C14.5356 9.99815 14.382 10.2737 14.2844 10.5724C14.1868 10.8712 14.1471 11.1871 14.1676 11.5019C14.1676 12.3629 14.5372 14.0339 17.0131 15.5779ZM16.3248 9.96094C16.571 9.96173 16.8141 10.018 17.0375 10.1259C17.2608 10.2338 17.4592 10.3907 17.6188 10.5859C17.6655 10.645 17.7241 10.6926 17.7905 10.7252C17.8569 10.7579 17.9294 10.7748 18.0028 10.7748C18.0763 10.7748 18.1488 10.7579 18.2152 10.7252C18.2816 10.6926 18.3402 10.645 18.3868 10.5859C18.5475 10.3926 18.7458 10.2372 18.9686 10.1299C19.1914 10.0227 19.4336 9.96608 19.679 9.96394C19.8545 9.98303 20.0248 10.038 20.1799 10.1256C20.3351 10.2132 20.4722 10.3318 20.5834 10.4747C20.6945 10.6175 20.7776 10.7817 20.8278 10.958C20.8781 11.1342 20.8945 11.3191 20.8761 11.5019C20.8761 12.6019 20.0121 13.7739 18.4982 14.7179C18.3477 14.8098 18.1763 14.8582 18.0019 14.8582C17.8274 14.8582 17.6561 14.8098 17.5056 14.7179C15.9945 13.7769 15.1276 12.6019 15.1276 11.5019C15.1089 11.3188 15.125 11.1337 15.175 10.9571C15.2251 10.7805 15.3081 10.6159 15.4193 10.4727C15.5305 10.3296 15.6677 10.2107 15.8231 10.1229C15.9784 10.0351 16.1489 9.98002 16.3248 9.96094Z" fill="#4E1173"/>
</svg>
