<svg width="36" height="36" viewBox="0 0 36 36" fill="none" xmlns="http://www.w3.org/2000/svg">
<circle cx="18" cy="18" r="18" fill="#F7ECFF"/>
<path d="M27.9289 26.6648L25.715 24.0988C25.8793 23.9652 26.0011 23.7866 26.0653 23.5848C26.1295 23.383 26.1334 23.1669 26.0765 22.9629C26.0196 22.759 25.9044 22.5761 25.745 22.4367C25.5857 22.2973 25.389 22.2074 25.1793 22.1782C25.1819 22.1659 25.1846 22.1537 25.1867 22.1413C25.224 21.9293 25.1976 21.711 25.1108 21.5141C25.024 21.3172 24.8808 21.1504 24.6992 21.0348C24.5176 20.9193 24.3058 20.8602 24.0907 20.865C23.8755 20.8699 23.6666 20.9384 23.4904 21.0619L23.2443 21.2344L22.3512 20.1993C22.3232 20.1671 22.3027 20.1291 22.291 20.0881C22.2794 20.047 22.2769 20.004 22.2837 19.9619C22.2845 19.957 22.2852 19.9521 22.2857 19.9473L22.7068 16.1618C22.7653 15.7901 22.7203 15.4095 22.5767 15.0616C22.5744 15.0561 22.5719 15.0506 22.5693 15.0451L19.3998 8.5361C19.345 8.40696 19.2601 8.2928 19.1522 8.20314C19.0443 8.11349 18.9165 8.05093 18.7795 8.02069C18.6426 7.99044 18.5003 7.9934 18.3647 8.0293C18.2291 8.0652 18.104 8.13301 18 8.22707C17.8959 8.13302 17.7708 8.06521 17.6352 8.02931C17.4996 7.99341 17.3574 7.99046 17.2204 8.0207C17.0835 8.05093 16.9557 8.11348 16.8478 8.20313C16.7399 8.29278 16.655 8.40693 16.6002 8.53606L13.4307 15.0451C13.4281 15.0506 13.4256 15.0561 13.4233 15.0616C13.2797 15.4095 13.2347 15.7901 13.2932 16.1618L13.7143 19.9473C13.7149 19.9521 13.7155 19.957 13.7163 19.9619C13.7231 20.004 13.7206 20.047 13.709 20.088C13.6973 20.1291 13.6768 20.167 13.6489 20.1992L12.7557 21.2344L12.5097 21.0619C12.3334 20.9384 12.1245 20.8699 11.9094 20.8651C11.6942 20.8603 11.4825 20.9194 11.3009 21.0349C11.1194 21.1504 10.9761 21.3172 10.8893 21.5141C10.8025 21.711 10.7761 21.9293 10.8133 22.1412C10.8154 22.1537 10.8181 22.166 10.8207 22.1782C10.611 22.2075 10.4144 22.2973 10.255 22.4367C10.0957 22.5761 9.98048 22.759 9.92359 22.963C9.8667 23.1669 9.8706 23.383 9.9348 23.5848C9.99901 23.7866 10.1207 23.9652 10.285 24.0988L8.07115 26.6648C8.04602 26.694 8.02687 26.7277 8.01479 26.7643C8.00272 26.8008 7.99796 26.8394 8.00079 26.8777C8.00362 26.9161 8.01398 26.9535 8.03127 26.9879C8.04857 27.0223 8.07247 27.0529 8.1016 27.078C8.13073 27.1032 8.16453 27.1223 8.20106 27.1344C8.23759 27.1465 8.27614 27.1512 8.31452 27.1484C8.35289 27.1456 8.39032 27.1352 8.42469 27.1179C8.45906 27.1006 8.48969 27.0767 8.51482 27.0476L10.7652 24.4391L13.5482 26.3901L12.6087 27.5197C12.559 27.5794 12.5351 27.6564 12.5422 27.7338C12.5493 27.8112 12.5869 27.8826 12.6466 27.9323C12.7064 27.982 12.7834 28.0059 12.8608 27.9988C12.9382 27.9917 13.0096 27.9541 13.0593 27.8943L14.0297 26.7276L14.3498 26.952C14.526 27.0755 14.7349 27.144 14.95 27.1488C15.1652 27.1537 15.377 27.0946 15.5585 26.979C15.7401 26.8635 15.8833 26.6967 15.9701 26.4998C16.0569 26.3028 16.0833 26.0846 16.0461 25.8726C16.0439 25.8601 16.0413 25.8478 16.0387 25.8354C16.2549 25.8052 16.4571 25.7106 16.6188 25.5639C16.7806 25.4172 16.8944 25.2251 16.9455 25.0128C16.9966 24.8005 16.9825 24.5778 16.9053 24.3735C16.828 24.1693 16.691 23.9931 16.5122 23.8678L16.446 23.8214L17.8655 22.1142C17.9141 22.0546 17.959 21.9921 17.9999 21.9271C18.0406 21.9917 18.0852 22.0538 18.1334 22.113L19.5278 23.8397L19.4878 23.8678C19.3089 23.993 19.1718 24.1692 19.0944 24.3735C19.017 24.5778 19.003 24.8006 19.0541 25.013C19.1052 25.2253 19.2191 25.4174 19.3809 25.5641C19.5428 25.7108 19.745 25.8053 19.9614 25.8354C19.9587 25.8478 19.9561 25.8601 19.9539 25.8726C19.9168 26.0845 19.9434 26.3027 20.0302 26.4995C20.1171 26.6963 20.2603 26.863 20.4418 26.9785C20.6233 27.094 20.835 27.1531 21.05 27.1484C21.2651 27.1436 21.474 27.0753 21.6502 26.9519L21.8996 26.7772L22.799 27.8911C22.8478 27.9515 22.9187 27.9901 22.9959 27.9983C23.0732 28.0066 23.1506 27.9837 23.211 27.9349C23.2715 27.8861 23.31 27.8153 23.3183 27.738C23.3265 27.6608 23.3037 27.5834 23.2549 27.5229L22.3805 26.4401L25.2348 24.4391L27.4852 27.0476C27.5103 27.0767 27.5409 27.1006 27.5753 27.1179C27.6097 27.1352 27.6471 27.1456 27.6855 27.1484C27.7239 27.1512 27.7624 27.1465 27.7989 27.1344C27.8355 27.1223 27.8693 27.1032 27.8984 27.078C27.9275 27.0529 27.9514 27.0223 27.9687 26.9879C27.986 26.9535 27.9964 26.9161 27.9992 26.8777C28.002 26.8394 27.9973 26.8008 27.9852 26.7643C27.9731 26.7277 27.954 26.694 27.9289 26.6648ZM15.3856 26.3493C15.309 26.4582 15.1923 26.5322 15.0612 26.5553C14.9301 26.5783 14.7952 26.5484 14.6861 26.4722L10.6835 23.6663C10.6295 23.6285 10.5835 23.5803 10.5481 23.5247C10.5127 23.469 10.4886 23.407 10.4771 23.342C10.4657 23.2771 10.4672 23.2105 10.4815 23.1461C10.4958 23.0817 10.5226 23.0208 10.5605 22.9668C10.5984 22.9127 10.6465 22.8667 10.7021 22.8313C10.7578 22.7959 10.8198 22.7718 10.8848 22.7604C10.9498 22.7489 11.0163 22.7504 11.0807 22.7647C11.1451 22.779 11.206 22.8059 11.2601 22.8437L11.2604 22.844L11.5947 23.0784L11.5977 23.0804L14.8272 25.3443C14.8301 25.3464 14.833 25.3485 14.836 25.3506L15.2629 25.6497C15.3719 25.7262 15.446 25.8429 15.469 25.9741C15.492 26.1053 15.462 26.2402 15.3856 26.3492V26.3493ZM16.2987 25.0472C16.2221 25.1561 16.1055 25.2302 15.9744 25.2532C15.8433 25.2762 15.7084 25.2463 15.5993 25.1701L11.9275 22.5961C11.9259 22.595 11.9244 22.5939 11.9228 22.5928L11.5967 22.3643C11.4877 22.2878 11.4134 22.1712 11.3904 22.04C11.3673 21.9088 11.3973 21.7738 11.4738 21.6647C11.5502 21.5556 11.6669 21.4814 11.7981 21.4583C11.9293 21.4353 12.0643 21.4653 12.1733 21.5417L12.6328 21.8638C12.6354 21.8657 12.6379 21.8675 12.6406 21.8693L16.1758 24.3476C16.2298 24.3854 16.2759 24.4335 16.3113 24.4892C16.3467 24.5448 16.3708 24.6069 16.3822 24.6719C16.3936 24.7369 16.3921 24.8034 16.3778 24.8678C16.3635 24.9322 16.3366 24.9932 16.2987 25.0472ZM17.707 14.832C17.3508 14.839 17.0094 14.9758 16.7469 15.2168C16.4845 15.4578 16.3191 15.7863 16.2818 16.1407L16.0151 18.6386C16.0069 18.7158 16.0297 18.7932 16.0785 18.8537C16.1273 18.9141 16.1981 18.9527 16.2754 18.961C16.3526 18.9692 16.43 18.9464 16.4905 18.8976C16.5509 18.8488 16.5895 18.778 16.5978 18.7007L16.8645 16.2028C16.8866 15.9924 16.984 15.797 17.1389 15.6527C17.2937 15.5084 17.4955 15.425 17.707 15.4178V20.9156C17.7068 21.2165 17.6032 21.5081 17.4134 21.7416L15.9646 23.4839L13.2379 21.5724L14.0926 20.582C14.1756 20.486 14.2368 20.3732 14.2719 20.2513C14.307 20.1294 14.3152 20.0013 14.2959 19.8759L13.8748 16.0903C13.8743 16.0856 13.8736 16.0809 13.8729 16.0762C13.8303 15.8119 13.861 15.5411 13.9617 15.2931L17.1306 8.78532C17.1332 8.77992 17.1357 8.77442 17.138 8.76891C17.1642 8.70575 17.2114 8.65362 17.2717 8.62139C17.332 8.58915 17.4016 8.57879 17.4687 8.59208C17.5358 8.60536 17.5962 8.64147 17.6396 8.69427C17.6831 8.74706 17.7069 8.81327 17.707 8.88164V14.832ZM18.5882 21.7436C18.3976 21.5098 18.2933 21.2174 18.293 20.9156V15.4177C18.5045 15.4249 18.7063 15.5083 18.8611 15.6526C19.016 15.7969 19.1134 15.9923 19.1355 16.2028L19.4022 18.7007C19.4105 18.778 19.4491 18.8488 19.5095 18.8976C19.57 18.9464 19.6474 18.9692 19.7246 18.9609C19.8019 18.9527 19.8727 18.9141 19.9215 18.8536C19.9703 18.7932 19.9931 18.7158 19.9849 18.6385L19.7182 16.1406C19.6809 15.7863 19.5155 15.4577 19.2531 15.2168C18.9906 14.9758 18.6492 14.839 18.293 14.832V8.88164C18.293 8.8132 18.3167 8.74687 18.3602 8.69398C18.4036 8.64109 18.4641 8.60491 18.5312 8.5916C18.5984 8.5783 18.668 8.58871 18.7284 8.62104C18.7887 8.65337 18.8359 8.70563 18.862 8.76891C18.8643 8.77442 18.8668 8.77992 18.8694 8.78532L22.0383 15.2932C22.139 15.5411 22.1697 15.812 22.1271 16.0762C22.1264 16.0809 22.1257 16.0855 22.1252 16.0903L21.7041 19.8759C21.6848 20.0013 21.693 20.1294 21.7281 20.2513C21.7633 20.3732 21.8244 20.4861 21.9075 20.582L22.7621 21.5725L20.0087 23.5026L18.5882 21.7436ZM19.7013 25.0472C19.6634 24.9932 19.6365 24.9323 19.6222 24.8679C19.6079 24.8035 19.6064 24.7369 19.6178 24.672C19.6292 24.607 19.6533 24.5449 19.6887 24.4892C19.7241 24.4336 19.7701 24.3855 19.8241 24.3476L23.3599 21.869C23.3622 21.8675 23.3645 21.8658 23.3668 21.8642L23.8267 21.5418C23.9358 21.4653 24.0708 21.4353 24.2019 21.4584C24.3331 21.4814 24.4498 21.5557 24.5262 21.6647C24.6027 21.7738 24.6327 21.9088 24.6096 22.04C24.5866 22.1712 24.5123 22.2878 24.4033 22.3643L20.7923 24.8956C20.79 24.8971 20.7878 24.8987 20.7856 24.9003L20.4007 25.1701C20.2916 25.2464 20.1567 25.2764 20.0256 25.2533C19.8945 25.2303 19.7778 25.1561 19.7013 25.0472ZM25.5228 23.342C25.5116 23.407 25.4876 23.4692 25.4521 23.5249C25.4167 23.5805 25.3706 23.6286 25.3164 23.6663L21.3139 26.4722C21.2599 26.5101 21.199 26.5369 21.1346 26.5513C21.0702 26.5656 21.0037 26.5671 20.9387 26.5557C20.8738 26.5443 20.8117 26.5202 20.756 26.4848C20.7004 26.4494 20.6522 26.4034 20.6144 26.3494C20.5765 26.2954 20.5496 26.2345 20.5353 26.1701C20.521 26.1057 20.5195 26.0391 20.5309 25.9742C20.5423 25.9092 20.5663 25.8471 20.6017 25.7915C20.6371 25.7358 20.6831 25.6877 20.7371 25.6498L24.7396 22.844L24.7398 22.8439L24.7399 22.8438C24.8213 22.7869 24.9177 22.7553 25.017 22.753C25.1163 22.7508 25.214 22.7781 25.2978 22.8314C25.3816 22.8847 25.4477 22.9617 25.4877 23.0526C25.5278 23.1435 25.54 23.2442 25.5228 23.342Z" fill="#4E1173"/>
</svg>
