<svg width="18" height="12" viewBox="0 0 18 12" fill="none" xmlns="http://www.w3.org/2000/svg">
<path opacity="0.5" fill-rule="evenodd" clip-rule="evenodd" d="M15.5838 0.40625H16.5077C17.1451 0.40625 17.6618 0.92125 17.6618 1.55525V9.82525C17.6618 10.4592 17.1451 10.9742 16.5077 10.9742H15.5838C14.9454 10.9742 14.4297 10.4592 14.4297 9.82525V1.55525C14.4297 0.92125 14.9454 0.40625 15.5838 0.40625Z" fill="#1E1E1E"/>
<path fill-rule="evenodd" clip-rule="evenodd" d="M10.9627 2.70312H11.8866C12.525 2.70312 13.0407 3.21713 13.0407 3.85213V9.82513C13.0407 10.4591 12.525 10.9741 11.8866 10.9741H10.9627C10.3243 10.9741 9.80859 10.4591 9.80859 9.82513V3.85213C9.80859 3.21713 10.3243 2.70312 10.9627 2.70312Z" fill="#1E1E1E"/>
<path fill-rule="evenodd" clip-rule="evenodd" d="M6.34162 5H7.26552C7.90391 5 8.41965 5.514 8.41965 6.148V9.824C8.41965 10.458 7.90391 10.973 7.26552 10.973H6.34162C5.70324 10.973 5.1875 10.458 5.1875 9.824V6.148C5.1875 5.514 5.70324 5 6.34162 5Z" fill="#1E1E1E"/>
<path fill-rule="evenodd" clip-rule="evenodd" d="M1.72444 6.375H2.64834C3.28672 6.375 3.80246 6.889 3.80246 7.523V9.821C3.80246 10.455 3.28672 10.97 2.64834 10.97H1.72444C1.08705 10.97 0.570312 10.455 0.570312 9.821V7.523C0.570312 6.889 1.08705 6.375 1.72444 6.375Z" fill="#1E1E1E"/>
</svg>
