<svg width="16" height="12" viewBox="0 0 16 12" fill="none" xmlns="http://www.w3.org/2000/svg">
<path fill-rule="evenodd" clip-rule="evenodd" d="M7.51263 7.00781C6.43994 7.00781 5.54519 7.73281 5.29688 8.70681L7.61718 10.9758L9.76458 8.87581C9.58362 7.81681 8.64765 7.00781 7.51263 7.00781Z" fill="#1E1E1E"/>
<path fill-rule="evenodd" clip-rule="evenodd" d="M7.50996 3.79688C5.54454 3.79688 3.82039 4.79388 2.82812 6.29588L4.25972 7.69388C4.84985 6.51487 6.07636 5.69687 7.50996 5.69687C8.99786 5.69687 10.2746 6.57388 10.8356 7.82688L12.2712 6.42287C11.294 4.85087 9.52968 3.79688 7.50996 3.79688Z" fill="#1E1E1E"/>
<path opacity="0.5" fill-rule="evenodd" clip-rule="evenodd" d="M7.51166 0.40625C4.59117 0.40625 2.00042 1.76625 0.347656 3.86825L1.78729 5.27525C3.06005 3.52525 5.14712 2.37925 7.51166 2.37925C9.92949 2.37925 12.0618 3.57425 13.3255 5.39225L14.7661 3.98525C13.1174 1.81725 10.4864 0.40625 7.51166 0.40625Z" fill="#1E1E1E"/>
</svg>
