<svg width="24" height="24" viewBox="0 0 24 24" fill="none" xmlns="http://www.w3.org/2000/svg">
<path d="M11.9994 3.19922C7.14419 3.19922 3.19939 7.14402 3.19939 11.9992C3.19939 13.4192 3.56259 14.8096 4.21939 16.0664L3.21019 20.3064C3.19428 20.373 3.19569 20.4425 3.2143 20.5083C3.23292 20.5741 3.2681 20.6341 3.31649 20.6824C3.36489 20.7308 3.42487 20.7659 3.49072 20.7845C3.55657 20.803 3.62607 20.8044 3.69259 20.7884L7.93259 19.7792C9.18899 20.436 10.5794 20.7992 11.9994 20.7992C16.8542 20.7992 20.7994 16.8548 20.7994 11.9992C20.7994 7.14362 16.855 3.19922 11.9994 3.19922ZM11.9994 3.99922C16.4226 3.99922 19.9994 7.57642 19.9994 11.9992C19.9994 16.422 16.4222 19.9992 11.9994 19.9992C10.6534 19.9992 9.32859 19.6592 8.14859 19.0112C8.06158 18.9635 7.95993 18.9498 7.86339 18.9728L4.13939 19.8592L5.02579 16.1352C5.04894 16.0387 5.03539 15.9371 4.98779 15.85C4.33961 14.67 3.99965 13.3455 3.99939 11.9992C3.99939 7.57602 7.57659 3.99922 11.9994 3.99922Z" fill="#424242"/>
<path d="M8.00078 10.8008C7.34278 10.8008 6.80078 11.3428 6.80078 12.0008C6.80078 12.6588 7.34278 13.2008 8.00078 13.2008C8.65878 13.2008 9.20078 12.6588 9.20078 12.0008C9.20078 11.3428 8.65878 10.8008 8.00078 10.8008ZM8.00078 11.6008C8.22638 11.6008 8.40078 11.7752 8.40078 12.0008C8.40078 12.2264 8.22638 12.4008 8.00078 12.4008C7.77518 12.4008 7.60078 12.2264 7.60078 12.0008C7.60078 11.7752 7.77518 11.6008 8.00078 11.6008ZM12.0008 10.8008C11.3428 10.8008 10.8008 11.3428 10.8008 12.0008C10.8008 12.6588 11.3428 13.2008 12.0008 13.2008C12.6588 13.2008 13.2008 12.6588 13.2008 12.0008C13.2008 11.3428 12.6588 10.8008 12.0008 10.8008ZM12.0008 11.6008C12.2264 11.6008 12.4008 11.7752 12.4008 12.0008C12.4008 12.2264 12.2264 12.4008 12.0008 12.4008C11.7752 12.4008 11.6008 12.2264 11.6008 12.0008C11.6008 11.7752 11.7752 11.6008 12.0008 11.6008ZM16.0008 10.8008C15.3428 10.8008 14.8008 11.3428 14.8008 12.0008C14.8008 12.6588 15.3428 13.2008 16.0008 13.2008C16.6588 13.2008 17.2008 12.6588 17.2008 12.0008C17.2008 11.3428 16.6588 10.8008 16.0008 10.8008ZM16.0008 11.6008C16.2264 11.6008 16.4008 11.7752 16.4008 12.0008C16.4008 12.2264 16.2264 12.4008 16.0008 12.4008C15.7752 12.4008 15.6008 12.2264 15.6008 12.0008C15.6008 11.7752 15.7752 11.6008 16.0008 11.6008Z" fill="#424242"/>
</svg>
